<?xml version="1.0" encoding="utf-8"?>
<!-- Generator: Adobe Illustrator 25.2.0, SVG Export Plug-In . SVG Version: 6.00 Build 0)  -->
<svg version="1.1" id="Layer_1" xmlns="http://www.w3.org/2000/svg" xmlns:xlink="http://www.w3.org/1999/xlink" x="0px" y="0px"
	 viewBox="0 0 384.7 121.1" style="enable-background:new 0 0 384.7 121.1;" xml:space="preserve">
<style type="text/css">
	.st0{opacity:0.1;}
	.st1{fill:#0071BC;}
	.st2{fill:#3B3B3B;}
</style>
<g class="st0">
	
		<image style="overflow:visible;opacity:0.75;" width="38" height="37" xlink:href="B99D3978.png"  transform="matrix(1 0 0 1 173 22.13)">
	</image>
	<g>
		<path class="st1" d="M191,40.7c0.9,0.3,0.4,1.3,0.4,1.9c0.4,1.5,2.6,1.7,3.6,0.7c0.5-0.6,0.5-1.4,0-2c0,0-0.1-0.1-0.1-0.1
			c-0.7-0.6-1.9-0.3-2.5-1c-0.2-0.4,0-1,0-1.4c-0.8-1.2-3.1-1.1-3.7,0.3C188.6,40.4,190.1,40.4,191,40.7z"/>
	</g>
</g>
<g class="st0">
	
		<image style="overflow:visible;opacity:0.75;" width="35" height="34" xlink:href="B99D3979.png"  transform="matrix(1 0 0 1 179 22.13)">
	</image>
	<g>
		<path class="st1" d="M198.2,39.1c-0.4-1.2-2.2-1.3-3.2-0.8c-0.3,0.2-0.5,0.5-0.5,0.8C194.8,40.9,198.1,41,198.2,39.1z"/>
	</g>
</g>
<g class="st0">
	
		<image style="overflow:visible;opacity:0.75;" width="35" height="34" xlink:href="B99D397F.png"  transform="matrix(1 0 0 1 182 25.13)">
	</image>
	<g>
		<path class="st1" d="M197.8,42.7c0.5,1.7,3.5,1.9,3.9,0c0.1-1.5-1.9-2.2-3-1.6C198,41.3,197.6,42,197.8,42.7
			C197.8,42.7,197.8,42.7,197.8,42.7z"/>
	</g>
</g>
<g class="st0">
	
		<image style="overflow:visible;opacity:0.75;" width="35" height="34" xlink:href="B99D397A.png"  transform="matrix(1 0 0 1 188 26.13)">
	</image>
	<g>
		<path class="st1" d="M207.3,43.8c0.3-1-0.3-2.1-1.3-2.4c-0.3-0.1-0.6-0.1-0.9-0.1c-0.6-0.1-1.1,0.4-1.2,1c0,0,0,0,0,0.1
			C203.8,44,206.3,45.3,207.3,43.8z"/>
	</g>
</g>
<g class="st0">
	
		<image style="overflow:visible;opacity:0.75;" width="37" height="38" xlink:href="B99D397B.png"  transform="matrix(1 0 0 1 161 26.13)">
	</image>
	<g>
		<path class="st1" d="M179.2,47.8c0.7-0.8,0-2.1,0.8-2.8c0.8-0.8,1.7-0.6,2.4-1.2c0.6-0.5,0.7-1.4,0.2-2.1
			c-1.2-1.2-3.7,0.2-3.3,1.8c0,1-0.7,1.8-1.7,1.9c-1.1,0.3-1.7,1.4-1.4,2.5c0.1,0.2,0.2,0.5,0.3,0.7c0.9,0.5,2,0.3,2.5-0.6
			C179.2,47.9,179.2,47.8,179.2,47.8z"/>
	</g>
</g>
<g class="st0">
	
		<image style="overflow:visible;opacity:0.75;" width="39" height="43" xlink:href="B99D3976.png"  transform="matrix(1 0 0 1 166 25.13)">
	</image>
	<g>
		<path class="st1" d="M182.3,45.5c-0.7,0.7-0.7,1.7,0,2.4c0,0,0,0,0,0c0.5,0.5,1.4,0.2,1.9,0.7c0.5,0.5,0.6,1.1,0.4,1.7
			c-0.2,1.1,0.5,2.1,1.6,2.3c0.2,0,0.5,0,0.7,0c1.4-0.2,2.4-2.1,1.4-3.3c-0.6-0.9-1.9-0.4-2.6-1.3c-0.6-0.9,0-1.8-0.2-2.7
			c0-1.2,1.3-1.4,2.2-1.5c0,0,1.3-0.7,1.3-1.5c0.1-1.1-1.2-1.7-2.1-1.5c-1.1,0.1-1.9,1.1-1.8,2.3c0,0.1,0,0.3,0.1,0.4
			C184.7,44.9,183,44.5,182.3,45.5z"/>
	</g>
</g>
<g class="st0">
	
		<image style="overflow:visible;opacity:0.75;" width="35" height="34" xlink:href="B99D3977.png"  transform="matrix(1 0 0 1 173 29.13)">
	</image>
	<g>
		<path class="st1" d="M189.4,44.6c-0.9,0.2-1.5,1.2-1.3,2.1c0.1,0.2,0.2,0.5,0.3,0.7c1,1.3,3.6,0.6,3.6-1.1
			C192.2,44.9,190.5,44.2,189.4,44.6z"/>
	</g>
</g>
<g class="st0">
	
		<image style="overflow:visible;opacity:0.75;" width="35" height="34" xlink:href="B99D3988.png"  transform="matrix(1 0 0 1 179 29.13)">
	</image>
	<g>
		<path class="st1" d="M198.7,46.7c0.4-1.5-1.4-2.6-2.8-2.1c-0.9,0.2-1.4,1.1-1.2,2c0,0.2,0.1,0.4,0.2,0.5
			C195.8,48.5,198.3,48.4,198.7,46.7z"/>
	</g>
</g>
<g class="st0">
	
		<image style="overflow:visible;opacity:0.75;" width="38" height="39" xlink:href="B99D398B.png"  transform="matrix(1 0 0 1 183 29.13)">
	</image>
	<g>
		<path class="st1" d="M201.4,47.4c-0.2,1.7-2.4,1-3,2.3c-0.5,1-0.1,2.3,1,2.8c0.1,0.1,0.2,0.1,0.3,0.1c1,0.4,2.1-0.2,2.5-1.2
			c0,0,0-0.1,0-0.1c0.3-0.7-0.4-1.5,0.1-2.3c0.4-0.5,1-0.9,1.6-0.8c0.8-0.1,1.3-0.9,1.2-1.7c-0.2-1.2-1.3-2-2.5-1.8
			c-0.1,0-0.3,0.1-0.4,0.1C201,45.3,201.3,46.5,201.4,47.4z"/>
	</g>
</g>
<g class="st0">
	
		<image style="overflow:visible;opacity:0.75;" width="34" height="34" xlink:href="D3B94EA7.png"  transform="matrix(1 0 0 1 192 30.13)">
	</image>
	<g>
		<path class="st1" d="M210.1,48.6c1.6-1.3-0.5-4.1-2.2-3.1C206.2,46.7,208.4,49.7,210.1,48.6z"/>
	</g>
</g>
<g class="st0">
	
		<image style="overflow:visible;opacity:0.75;" width="39" height="45" xlink:href="D3B94EA5.png"  transform="matrix(1 0 0 1 176 33.13)">
	</image>
	<g>
		<path class="st1" d="M192.8,48.7c-1.1,0.2-1.7,1.2-1.5,2.3c0,0.3,0.2,0.5,0.3,0.7c0.6,1.1,2.1,0.7,2.8,1.5
			c0.2,0.5,0.4,1.1,0.3,1.7c-0.2,0.9,0.4,1.8-0.2,2.6c-0.6,0.8-1.9,0.6-2.6,1.3c-0.9,0.8-1,2.2-0.2,3.1s2.2,1,3.1,0.2
			c0.2-0.2,0.4-0.4,0.5-0.7c0.5-1-0.3-2.1,0.3-3c0.6-0.9,2-0.5,2.8-1.4c0.8-0.8,0.8-2.2-0.1-3c-0.1-0.1-0.1-0.1-0.2-0.1
			c-0.6-0.5-1.3-0.4-1.9-0.7c-0.6-0.4-0.9-1.2-0.7-1.9c0.2-1.1-0.5-2.2-1.6-2.5C193.5,48.6,193.2,48.6,192.8,48.7z"/>
	</g>
</g>
<g class="st0">
	
		<image style="overflow:visible;opacity:0.75;" width="35" height="35" xlink:href="D3B94EA3.png"  transform="matrix(1 0 0 1 189 33.13)">
	</image>
	<g>
		<path class="st1" d="M206.8,53c0.9,0,1.6-0.8,1.5-1.7c0,0,0,0,0,0c0-1.4-1.6-2.7-2.9-2C203.8,50.3,205,53.2,206.8,53z"/>
	</g>
</g>
<g class="st0">
	
		<image style="overflow:visible;opacity:0.75;" width="36" height="39" xlink:href="D3B94EBD.png"  transform="matrix(1 0 0 1 195 34.13)">
	</image>
	<g>
		<path class="st1" d="M212.3,53.6L212.3,53.6c1.3,0.9,0.2,2.5,0.9,3.6c0.2,0.6,1,1.1,1.6,0.6c0.6-0.7,0.8-1.7,0.4-2.6
			c-0.2-1-1.7-1-1.8-2c0.1-1,0.2-2.2-0.6-3c-0.4-0.6-1.3-0.7-1.8-0.2c-0.2,0.1-0.3,0.3-0.4,0.5c-0.4,1.3,0.3,2.7,1.6,3.1
			C212.2,53.6,212.2,53.6,212.3,53.6z"/>
	</g>
</g>
<g class="st0">
	
		<image style="overflow:visible;opacity:0.75;" width="42" height="40" xlink:href="D3B94EBF.png"  transform="matrix(1 0 0 1 156 33.13)">
	</image>
	<g>
		<path class="st1" d="M172.3,57.9c1.3,0.1,1.7-1.5,1.5-2.5c-0.2-0.8,0.2-1.9,1.1-2c0.9,0.2,1,1.3,0.8,2c-0.2,1,0.5,2.4,1.6,2.2
			s1.8-1.7,1.6-2.9c-0.3-1.2,0.9-1.9,1.9-2.1h0.1c1.1-0.5,1.5-1.8,1-2.9c0-0.1-0.1-0.2-0.1-0.2c-0.7-0.7-1.9-0.7-2.6,0.1
			c-0.1,0.1-0.1,0.1-0.2,0.2c-0.7,0.7-0.4,1.8-0.5,2.7c-0.2,0.5-0.6,1-1.1,1.2c-0.5-0.1-0.9-0.4-1.1-0.8c-0.1-1,0.5-1.9-0.1-2.8
			c-0.5-0.6-1.4-0.6-1.9-0.1c-0.1,0.1-0.1,0.1-0.2,0.2c-0.8,0.8-0.5,1.9-0.6,2.9c-0.1,0.5-0.4,0.8-0.8,1
			C171.2,54.8,171,57.2,172.3,57.9z"/>
	</g>
</g>
<g class="st0">
	
		<image style="overflow:visible;opacity:0.75;" width="35" height="35" xlink:href="D3B94EA2.png"  transform="matrix(1 0 0 1 166 38.13)">
	</image>
	<g>
		<path class="st1" d="M182.3,57.4c1.5,0.8,3.3-1,2.8-2.5c-0.2-1-1.2-1.6-2.2-1.4c-0.1,0-0.2,0-0.3,0.1c-1.1,0.5-1.6,1.8-1.1,2.9
			C181.7,56.8,182,57.2,182.3,57.4z"/>
	</g>
</g>
<g class="st0">
	
		<image style="overflow:visible;opacity:0.75;" width="38" height="40" xlink:href="D3B94EA1.png"  transform="matrix(1 0 0 1 186 38.13)">
	</image>
	<g>
		<path class="st1" d="M208.1,59c-0.5-0.9-1.9-0.6-2.3-1.5c-0.6-0.9,0.1-1.9-0.4-2.8c-0.4-1-1.5-1.4-2.5-1.1c-1,0.5-1.5,1.7-1,2.8
			c0.1,0.2,0.2,0.4,0.4,0.5c0.6,0.8,1.8,0.6,2.4,1.4c0.8,1-0.1,2.3,0.6,3.2c0.4,0.8,1.5,1.1,2.3,0.7c0.1-0.1,0.2-0.1,0.3-0.2
			C208.6,61.3,208.8,60,208.1,59z"/>
	</g>
</g>
<g class="st0">
	
		<image style="overflow:visible;opacity:0.75;" width="35" height="35" xlink:href="D3B94EA6.png"  transform="matrix(1 0 0 1 192 38.13)">
	</image>
	<g>
		<path class="st1" d="M209.8,57.7c2.1-0.5,1.4-4.3-0.8-3.9C207,54.4,207.7,58,209.8,57.7z"/>
	</g>
</g>
<g class="st0">
	
		<image style="overflow:visible;opacity:0.75;" width="34" height="35" xlink:href="D3B94EA0.png"  transform="matrix(1 0 0 1 158 43.13)">
	</image>
	<g>
		<path class="st1" d="M174.5,58.5c-1.7,0.6-1.5,3.9,0.5,3.8C176.9,61.9,176.6,58.2,174.5,58.5z"/>
	</g>
</g>
<g class="st0">
	
		<image style="overflow:visible;opacity:0.75;" width="35" height="35" xlink:href="D3B94EAE.png"  transform="matrix(1 0 0 1 183 43.13)">
	</image>
	<g>
		<path class="st1" d="M198.4,61.2c0.4,1.1,1.6,1.6,2.7,1.1c0,0,0,0,0.1,0c1.1-0.5,1.6-1.8,1.1-2.9c0-0.1-0.1-0.1-0.1-0.2
			c-0.5-1-1.8-1.4-2.8-0.8c0,0-0.1,0.1-0.1,0.1C198.3,59.1,198,60.3,198.4,61.2z"/>
	</g>
</g>
<g class="st0">
	
		<image style="overflow:visible;opacity:0.75;" width="34" height="35" xlink:href="D3B94EC6.png"  transform="matrix(1 0 0 1 195 43.13)">
	</image>
	<g>
		<path class="st1" d="M211.9,62.3c2.2,0,1.9-4.2-0.2-3.8C210,59.1,210.2,62,211.9,62.3z"/>
	</g>
</g>
<g class="st0">
	
		<image style="overflow:visible;opacity:0.75;" width="38" height="40" xlink:href="D3B94EC5.png"  transform="matrix(1 0 0 1 163 43.13)">
	</image>
	<g>
		<path class="st1" d="M184.5,66.8c0.8-0.8,0.8-2.2,0-3.1c-0.3-0.3-0.6-0.4-0.9-0.5c-0.9,0-1.7-0.7-1.8-1.6c0.2-0.8,0.2-1.7-0.2-2.4
			c-0.5-0.8-1.5-1.1-2.4-0.7c0,0,0,0,0,0c-1,0.7-1.3,2.2-0.5,3.2c0.1,0.1,0.1,0.2,0.2,0.3l0,0c0.6,0.5,1.6,0.4,2.1,1.1
			c0.7,0.9-0.1,2,0.4,3c0.4,1,1.5,1.5,2.5,1.2C184.1,67.2,184.4,67,184.5,66.8z"/>
	</g>
</g>
<g class="st0">
	
		<image style="overflow:visible;opacity:0.75;" width="39" height="45" xlink:href="D3B94EC2.png"  transform="matrix(1 0 0 1 169 38.13)">
	</image>
	<g>
		<path class="st1" d="M191.6,66.7c0.7-0.9,0.5-2.3-0.4-3c-0.2-0.2-0.5-0.3-0.8-0.4c-0.8-0.1-1.9-0.5-1.9-1.5c0.1-0.8,0.1-1.7,0-2.5
			c0-1,0.7-1.8,1.7-1.8c0,0,0,0,0,0c1-0.1,1.8-1,1.9-2c0-1.2-0.9-2.1-2.1-2.2c0,0-0.1,0-0.1,0c-1.2,0-2.1,1-2.1,2.2
			c0,0.7,0.2,1.6-0.3,2.1c-0.5,0.6-1.7,0.5-2.4,1.1c-0.9,0.8-1,2.1-0.3,3c0.7,0.8,1.9,0.5,2.6,1.4c0.9,1-0.1,2.3,0.7,3.2
			c0.6,1,1.9,1.3,3,0.7C191.3,67,191.4,66.9,191.6,66.7z"/>
	</g>
</g>
<g class="st0">
	
		<image style="overflow:visible;opacity:0.75;" width="33" height="35" xlink:href="D3B94ECD.png"  transform="matrix(1 0 0 1 156 47.13)">
	</image>
	<g>
		<path class="st1" d="M172.1,63c-0.9,0.9-0.9,2.3,0,3.2c0.1,0.1,0.2,0.2,0.3,0.2C174.7,66.8,174.2,62.1,172.1,63z"/>
	</g>
</g>
<g class="st0">
	
		<image style="overflow:visible;opacity:0.75;" width="39" height="39" xlink:href="D3B94ECE.png"  transform="matrix(1 0 0 1 192 47.13)">
	</image>
	<g>
		<path class="st1" d="M213.8,63c-1,0.6-0.9,1.9-0.8,2.9c0,0.7-0.8,1.8-1.6,1.1c-1-1,0.3-2.9-1.1-3.8c-1.7-1-3.2,1.5-2.3,2.9
			c0.3,0.7,1.1,0.8,1.7,0.9c0.9,0.3,0.8,1.4,0.6,2.1c-0.2,0.7,0.2,1.6,0.9,1.8c0.1,0,0.2,0,0.3,0.1c1.2-0.2,1.9-1.3,1.7-2.4
			c0,0,0,0,0,0c-0.2-0.8,0.2-1.7,0.9-2.1c1.1-0.5,1.2-1.9,0.9-2.9C215,63,214.3,62.5,213.8,63z"/>
	</g>
</g>
<g class="st0">
	
		<image style="overflow:visible;opacity:0.75;" width="38" height="40" xlink:href="D3B94ECC.png"  transform="matrix(1 0 0 1 160 47.13)">
	</image>
	<g>
		<path class="st1" d="M178.9,70.7c0.5,0.9,1.6,1.2,2.5,0.7c0.1-0.1,0.3-0.2,0.4-0.3c0.7-1,0.4-2.3-0.6-3c-0.2-0.1-0.4-0.2-0.7-0.3
			c-0.6-0.1-1.1-0.4-1.4-1c-0.4-0.9,0.2-1.8-0.3-2.7c-0.2-0.9-1.1-1.4-2-1.1c-0.2,0.1-0.4,0.1-0.5,0.3c-0.9,0.9-0.8,2.3,0.1,3.1
			c0.1,0.1,0.3,0.2,0.4,0.3c0.6,0.2,1.3,0.4,1.5,1C178.7,68.8,178.3,69.9,178.9,70.7z"/>
	</g>
</g>
<g class="st0">
	
		<image style="overflow:visible;opacity:0.75;" width="38" height="40" xlink:href="D3B94EC3.png"  transform="matrix(1 0 0 1 176 48.13)">
	</image>
	<g>
		<path class="st1" d="M192.6,72c1.1,0.4,2.3,0,2.7-1.1c0.1-0.4,0.2-0.7,0.1-1.1c-0.3-0.9,0.2-1.9,1.1-2.2c0.1,0,0.2,0,0.3-0.1
			c1.2,0,2.2-1,2.2-2.2c0-1.2-1-2.1-2.1-2.1c-0.3,0-0.6,0.1-0.9,0.2c-0.5,0.3-0.9,0.7-1.1,1.2c-0.3,0.9,0.3,1.9-0.2,2.7
			c-0.7,1-2.2,0.6-2.9,1.6c-0.7,0.8-0.5,2.1,0.3,2.7C192.2,71.8,192.4,71.9,192.6,72z"/>
	</g>
</g>
<g class="st0">
	
		<image style="overflow:visible;opacity:0.75;" width="38" height="39" xlink:href="D3B94EC4.png"  transform="matrix(1 0 0 1 183 48.13)">
	</image>
	<g>
		<path class="st1" d="M204.9,66.7c0.7-0.8,0.8-2,0.1-2.9c-0.5-0.6-1.3-0.8-2-0.5c-0.5,0.2-1,0.6-1.2,1.2c-0.5,0.9,0.2,2-0.4,2.9
			c-0.6,0.9-1.9,0.6-2.6,1.3c-0.8,0.7-1,1.9-0.3,2.7c0,0,0.1,0.1,0.1,0.1c0.9,0.8,2.2,0.8,3-0.1c0.1-0.2,0.3-0.3,0.4-0.5
			c0.5-0.9-0.2-1.9,0.4-2.8C203.1,67.2,204.3,67.5,204.9,66.7z"/>
	</g>
</g>
<g class="st0">
	
		<image style="overflow:visible;opacity:0.75;" width="34" height="34" xlink:href="D3B94EC7.png"  transform="matrix(1 0 0 1 158 52.13)">
	</image>
	<g>
		<path class="st1" d="M174.2,67.4c-1.6,1-0.4,4,1.4,3.5C177.4,70.2,176.1,66.8,174.2,67.4z"/>
	</g>
</g>
<g class="st0">
	
		<image style="overflow:visible;opacity:0.75;" width="35" height="35" xlink:href="D3B94EFB.png"  transform="matrix(1 0 0 1 189 52.13)">
	</image>
	<g>
		<path class="st1" d="M205.5,71.5c1.6,0.8,3.4-1.2,2.7-2.7c-0.4-0.8-1.4-1.2-2.2-0.8c-0.1,0-0.2,0.1-0.2,0.1
			C204.6,68.7,204.2,70.7,205.5,71.5z"/>
	</g>
</g>
<g class="st0">
	
		<image style="overflow:visible;opacity:0.75;" width="35" height="35" xlink:href="D3B94EE9.png"  transform="matrix(1 0 0 1 169 52.13)">
	</image>
	<g>
		<path class="st1" d="M185.4,71.6c0.9,0.7,2.1,0.6,2.9-0.3c0.2-0.2,0.3-0.4,0.4-0.7c0.2-1.2-0.6-2.3-1.8-2.5
			c-0.4-0.1-0.9,0-1.3,0.2c-0.9,0.6-1.2,1.7-0.7,2.7C185,71.2,185.2,71.4,185.4,71.6z"/>
	</g>
</g>
<g class="st0">
	
		<image style="overflow:visible;opacity:0.75;" width="34" height="35" xlink:href="D3B94EE7.png"  transform="matrix(1 0 0 1 161 56.13)">
	</image>
	<g>
		<path class="st1" d="M176.9,72c-1,0.5-0.9,1.9-0.3,2.7s2,1.2,2.7,0.3C180.2,73.5,178.5,71.4,176.9,72z"/>
	</g>
</g>
<g class="st0">
	
		<image style="overflow:visible;opacity:0.75;" width="34" height="35" xlink:href="D3B94ED9.png"  transform="matrix(1 0 0 1 192 56.13)">
	</image>
	<g>
		<path class="st1" d="M208.8,72c-1.1,0.4-2,1.9-1.2,3c1.1,1.1,2.9,0,3.1-1.4c0.2-0.7-0.2-1.5-1-1.7C209.4,71.9,209,71.9,208.8,72z"
			/>
	</g>
</g>
<g class="st0">
	
		<image style="overflow:visible;opacity:0.75;" width="44" height="38" xlink:href="D3B94EDB.png"  transform="matrix(1 0 0 1 164 57.13)">
	</image>
	<g>
		<path class="st1" d="M188.8,79.2c0.5-0.7-0.2-1.5,0.2-2.2c0.6-0.9,1.9-0.4,2.6-1.2c0.6-0.7,0.6-1.7,0-2.3c0,0-0.1-0.1-0.1-0.1
			c-0.9-0.8-2.2-0.7-3,0.2c-0.1,0.1-0.2,0.2-0.3,0.4c-0.5,0.8,0.5,1.9-0.3,2.6c-0.6,0.5-1.5,0.4-2-0.2c-0.2-0.3-0.3-0.7-0.3-1
			c0.2-1.2-0.6-2.3-1.8-2.6c-0.4-0.1-0.8,0-1.1,0.1c-1,0.4-0.9,1.7-0.6,2.5c0.2,0.9-0.7,1.2-1.3,1.2c-0.7,0-1.3,0.5-1.3,1.2
			c-0.1,1.7,2.4,2.8,3.4,1.4c0.6-0.8-0.5-1.7,0.2-2.5c0.9-0.9,2.4,0.2,2.3,1.3C184.8,79.7,187.8,80.6,188.8,79.2z"/>
	</g>
</g>
<g class="st0">
	
		<image style="overflow:visible;opacity:0.75;" width="37" height="38" xlink:href="D3B94ED8.png"  transform="matrix(1 0 0 1 186 57.13)">
	</image>
	<g>
		<path class="st1" d="M205.1,76c-0.7-0.8,0.3-1.8-0.2-2.6c-0.4-0.8-1.3-1.1-2.1-0.8c-1.1,0.3-2,1.8-1.3,2.9c0.5,0.8,1.6,0.5,2.3,1
			c0.8,0.8-0.4,1.9,0.3,2.6c1.3,1.4,4-0.3,3.2-2.1C206.9,76.1,205.8,76.5,205.1,76z"/>
	</g>
</g>
<g class="st0">
	
		<image style="overflow:visible;opacity:0.75;" width="35" height="35" xlink:href="D3B94EDF.png"  transform="matrix(1 0 0 1 179 57.13)">
	</image>
	<g>
		<path class="st1" d="M198.7,74.5c0.1-1.4-1.7-2.2-2.8-1.7c-0.9,0.3-1.4,1.3-1.1,2.3c0,0.1,0.1,0.2,0.1,0.3
			C195.9,76.9,198.7,76.3,198.7,74.5z"/>
	</g>
</g>
<g class="st0">
	
		<image style="overflow:visible;opacity:0.75;" width="38" height="37" xlink:href="D3B94EDA.png"  transform="matrix(1 0 0 1 176 61.13)">
	</image>
	<g>
		<path class="st1" d="M195.5,79.9c-0.6-0.5-0.1-1.2-0.2-1.8c-0.5-1.1-1.7-1.6-2.7-1.1c-0.1,0-0.1,0-0.2,0.1
			c-0.7,0.3-1.1,1.1-0.8,1.8c0,0.1,0.1,0.2,0.2,0.3c0.6,0.9,1.9,0.5,2.7,1.2c0.5,0.6-0.3,1.5,0.4,1.9c1,0.7,3.2,0.6,3.3-1
			C197.9,80.1,196.4,80.5,195.5,79.9z"/>
	</g>
</g>
<g class="st0">
	
		<image style="overflow:visible;opacity:0.75;" width="35" height="34" xlink:href="D3B94ED6.png"  transform="matrix(1 0 0 1 182 61.13)">
	</image>
	<g>
		<path class="st1" d="M198.9,77c-0.8,0.3-1.3,1.1-1,1.9c0,0.1,0.1,0.2,0.1,0.3c0.8,0.9,2.2,0.9,3.1,0.1c0.3-0.2,0.4-0.5,0.6-0.9
			C201.8,77,199.9,76.4,198.9,77z"/>
	</g>
</g>
<g class="st0">
	
		<image style="overflow:visible;opacity:0.75;" width="35" height="33" xlink:href="D3B94ED7.png"  transform="matrix(1 0 0 1 173 65.13)">
	</image>
	<g>
		<path class="st1" d="M189.4,80.5c-0.5,0.1-0.9,0.6-0.8,1.1c0.1,0.3,0.3,0.6,0.6,0.7c1,0.6,2.8,0.6,3.1-0.7
			C192.1,80.4,190.4,80,189.4,80.5z"/>
	</g>
</g>
<g class="st0">
	
		<image style="overflow:visible;opacity:0.75;" width="135" height="149" xlink:href="D3B94F27.png"  transform="matrix(1 0 0 1 126 -13.87)">
	</image>
	<g>
		<path class="st2" d="M157.4,83.4c-1.1-3.4-4.3-5.8-7.9-5.8c-0.5,0-1.1,0.1-1.6,0.2c-3.2,0.7-5.7,3.1-6.4,6.3
			c-0.8,3.4,0.7,6.9,3.6,8.7c1.3,0.8,2.8,1.3,4.4,1.3c0.8,0,1.7-0.1,2.5-0.4c0.8-0.2,1.5-0.6,2.2-1.1
			C157.2,90.6,158.5,86.8,157.4,83.4z M243.2,80.1c-3.1-3.3-8.3-3.4-11.6-0.2c-0.4,0.4-0.8,0.8-1.1,1.3c-2.6,3.7-1.6,8.9,2.1,11.4
			c0,0,0,0,0.1,0c1.3,0.9,2.9,1.4,4.5,1.4c1.4,0,2.8-0.3,4-1c1.2-0.6,2.2-1.5,2.9-2.7C246.2,87.2,245.8,82.9,243.2,80.1z M157,31.5
			c-1.4-2.9-4.3-4.8-7.5-4.8c-0.8,0-1.5,0.1-2.3,0.3c-4.3,1.3-6.8,5.9-5.4,10.3c1,3.4,4.2,5.8,7.8,5.8c0.9,0,1.8-0.1,2.7-0.4
			c0.8-0.3,1.6-0.7,2.3-1.3C157.6,39.1,158.7,35,157,31.5L157,31.5z M201.4,109.3c-0.8-3.8-4.2-6.6-8.1-6.6c-0.7,0-1.4,0.1-2.1,0.3
			c-2.1,0.5-3.9,1.9-5,3.8c-1.1,1.8-1.5,4-1,6c0.9,3.7,4.2,6.4,8,6.4c0.7,0,1.3-0.1,1.9-0.3c2.1-0.5,3.9-1.8,5-3.7
			C201.5,113.5,201.9,111.4,201.4,109.3L201.4,109.3z M243.8,30c-1.6-2.1-4-3.3-6.6-3.3c-1,0-2.1,0.2-3,0.6c-3.7,1.5-5.8,5.4-5,9.3
			c0.7,3.6,3.8,6.3,7.5,6.5c0.2,0,0.4,0,0.6,0c1.4,0,2.8-0.4,4-1.1c1.2-0.7,2.2-1.7,2.9-2.8C246,36.4,245.8,32.7,243.8,30L243.8,30z
			 M201,6.6c-1.3-3-4.3-5-7.6-5c-0.9,0-1.8,0.1-2.6,0.5c-2.1,0.7-3.9,2.3-4.8,4.4c-0.9,2-1,4.3-0.2,6.4c1.3,3.2,4.4,5.3,7.8,5.2
			c1.2,0,2.3-0.3,3.4-0.8c1.9-0.9,3.5-2.6,4.2-4.6C201.9,10.7,201.8,8.5,201,6.6z"/>
	</g>
</g>
<g class="st0">
	
		<image style="overflow:visible;opacity:0.75;" width="61" height="50" xlink:href="D3B94F34.png"  transform="matrix(1 0 0 1 141 -2.87)">
	</image>
	<g>
		<path class="st2" d="M158.4,30.9c0.2,0.4,0.4,0.8,0.5,1.2l9-5.2c5.5-3.2,12.6-7.3,18.4-10.6c-0.8-0.9-1.5-1.9-1.9-3
			c-0.1-0.2-0.1-0.3-0.2-0.5c-7.7,4.4-16.8,9.6-24.2,13.9l-3.1,1.8C157.5,29.2,158,30,158.4,30.9z"/>
	</g>
</g>
<g class="st0">
	
		<image style="overflow:visible;opacity:0.75;" width="60" height="50" xlink:href="D3B94F37.png"  transform="matrix(1 0 0 1 185 -2.87)">
	</image>
	<g>
		<path class="st2" d="M202.5,13.2c-0.4,1.1-1.1,2.2-1.9,3.1c0.6,0.4,1.3,0.8,1.6,1c3.5,2,7.1,4.1,10.5,6.1
			c4.5,2.6,10.4,6.1,15.2,8.8c0.4-1.3,1.1-2.5,1.9-3.5l0,0l0,0l0,0c-9-5.2-19.7-11.5-27.2-15.8C202.6,12.9,202.5,13,202.5,13.2z"/>
	</g>
</g>
<g class="st0">
	
		<image style="overflow:visible;opacity:0.75;" width="35" height="63" xlink:href="D3B94F35.png"  transform="matrix(1 0 0 1 220 29.13)">
	</image>
	<g>
		<path class="st2" d="M239.3,71.5L239.3,71.5c0-2.9,0-5.8,0-8.7V44.4c-0.6,0.1-1.3,0.2-1.9,0.2c-0.2,0-0.4,0-0.7,0
			c-0.5,0-1-0.1-1.5-0.2v0.3c0,2.2,0,5.8,0,9.7v10.2c0,0.4,0,0.9,0,1.3c0,0.3,0,0.7,0,1V67c0,0.3,0,0.7,0,1.1s0,0.9,0,1.4v0.6l0,0v1
			c0,0.5,0,1,0,1.5v2.3l0,0c0,0.2,0,0.8,0,1.5h0.1c0.6-0.1,1.3-0.2,1.9-0.2c0.7,0,1.4,0.1,2.1,0.2c0-1.5,0-3.4,0-4.3L239.3,71.5z"/>
	</g>
</g>
<g class="st0">
	
		<image style="overflow:visible;opacity:0.75;" width="60" height="50" xlink:href="D3B94F33.png"  transform="matrix(1 0 0 1 185 73.13)">
	</image>
	<g>
		<path class="st2" d="M228,88.7l-8.5,4.9c-5.8,3.4-12.9,7.5-18.9,10.9c1,1,1.7,2.2,2.1,3.6c5-2.9,11.1-6.4,15.9-9.2l11.3-6.5
			C229,91.2,228.4,90,228,88.7z"/>
	</g>
</g>
<g class="st0">
	
		<image style="overflow:visible;opacity:0.75;" width="35" height="63" xlink:href="D3B94F0C.png"  transform="matrix(1 0 0 1 132 29.13)">
	</image>
	<g>
		<path class="st2" d="M149.5,76.1c0.7,0,1.4,0.1,2.1,0.2c0-1.8,0-3.6,0-4.2c0-1.9,0-3.9-0.1-5.9c0.1-2.7,0.1-5.5,0.1-8.1
			c0-1.9,0-3.8,0-5.7c0-1.1,0-2.2,0-3.4s0-3.1,0-4.6c-0.7,0.1-1.4,0.2-2,0.2l0,0c-0.7,0-1.4-0.1-2-0.2c0,2.3,0,5.7,0,8
			c0,0.7,0,1.4,0,2.1c0,1.7,0,3.4,0,5c0,1.3,0,2.6,0,3.9v1.7c0,1.9,0,4,0,6l0,0c0,0.7,0,1.3,0,1.9v3.2h0.2
			C148.3,76.2,148.9,76.1,149.5,76.1z"/>
	</g>
</g>
<g class="st0">
	
		<image style="overflow:visible;opacity:0.75;" width="61" height="50" xlink:href="D3B94F0F.png"  transform="matrix(1 0 0 1 141 73.13)">
	</image>
	<g>
		<path class="st2" d="M185.1,106c0.3-0.6,0.7-1.1,1.1-1.6c-8.1-4.6-17.3-9.9-25.1-14.5l-2.3-1.3c-0.4,1.3-1.1,2.5-1.9,3.6
			c3.9,2.2,9.1,5.2,12.2,7c4.6,2.6,10.4,6,15.2,8.7C184.4,107.3,184.7,106.6,185.1,106z"/>
	</g>
</g>
<g class="st0">
	
		<image style="overflow:visible;opacity:0.75;" width="49" height="44" xlink:href="D3B94F0D.png"  transform="matrix(1 0 0 1 141 22.13)">
	</image>
	<g>
		<path class="st2" d="M174.5,47.1c-0.8,1.1-1.5,2.3-2.1,3.5c-4.7-2.7-10.2-5.9-11-6.3c-1.4-0.8-2.9-1.7-4.3-2.5l-0.3-0.2
			c0.9-1,1.6-2.2,2.1-3.5l0.3,0.2c1.7,0.9,3.4,1.9,5,2.8C164.8,41.5,170,44.5,174.5,47.1z"/>
	</g>
</g>
<g class="st0">
	
		<image style="overflow:visible;opacity:0.75;" width="49" height="43" xlink:href="D3B94F13.png"  transform="matrix(1 0 0 1 141 55.13)">
	</image>
	<g>
		<path class="st2" d="M174.6,73.9c-5.3,2.9-13.3,7.3-15.5,8.6l-0.3,0.2c-0.4-1.3-1.2-2.6-2.1-3.6l0.4-0.2c2.5-1.4,5.1-2.9,7.5-4.3
			l8-4.3C173.1,71.6,173.8,72.8,174.6,73.9z"/>
	</g>
</g>
<g class="st0">
	
		<image style="overflow:visible;opacity:0.75;" width="35" height="49" xlink:href="D3B94F14.png"  transform="matrix(1 0 0 1 176 4.13)">
	</image>
	<g>
		<path class="st2" d="M195.4,25v12.3c-0.7-0.1-1.4-0.1-2.1-0.1c-0.7,0-1.4,0-2,0.1V24.5c0-1.6,0-3.3,0-4.9v-0.4
			c0.7,0.2,1.4,0.2,2.1,0.2c0.7,0,1.3-0.1,1.9-0.2v0.4C195.4,21.5,195.4,23.2,195.4,25z"/>
	</g>
</g>
<g class="st0">
	
		<image style="overflow:visible;opacity:0.75;" width="35" height="49" xlink:href="D3B94F17.png"  transform="matrix(1 0 0 1 176 68.13)">
	</image>
	<g>
		<path class="st2" d="M195.4,101.1v0.3c-0.7-0.2-1.4-0.2-2.1-0.2c-0.7,0-1.3,0.1-2,0.2v-0.4c0-1.4,0-2.7,0-4.1s0-8.2,0-13.6
			c0.6,0.1,1.3,0.1,2,0.1c0.7,0,1.4,0,2.1-0.1c0,5.4,0,12.4,0,13.6C195.5,98.3,195.5,99.7,195.4,101.1z"/>
	</g>
</g>
<g class="st0">
	
		<image style="overflow:visible;opacity:0.75;" width="49" height="44" xlink:href="D3B94F73.png"  transform="matrix(1 0 0 1 197 22.13)">
	</image>
	<g>
		<path class="st2" d="M230.1,41.5l-0.3,0.2c-1.5,0.8-2.9,1.7-4.4,2.5c-0.7,0.4-6.1,3.6-11,6.5c-0.6-1.2-1.2-2.4-2-3.5
			c6.1-3.6,13.5-8,15.2-9.1L228,38C228.4,39.3,229.2,40.5,230.1,41.5z"/>
	</g>
</g>
<g class="st0">
	
		<image style="overflow:visible;opacity:0.75;" width="49" height="43" xlink:href="D3B94F71.png"  transform="matrix(1 0 0 1 197 55.13)">
	</image>
	<g>
		<path class="st2" d="M230.1,79.2c-0.3,0.3-0.6,0.7-0.9,1.1c-0.5,0.7-1,1.6-1.2,2.5l-0.3-0.2c-1.8-1-9.5-5.5-15.4-8.9
			c0.8-1.1,1.5-2.3,2.1-3.5l7.6,4.3l1.9,1.1c1.9,1.1,3.9,2.3,5.9,3.4L230.1,79.2z"/>
	</g>
</g>
</svg>
