<svg xmlns="http://www.w3.org/2000/svg" viewBox="0 0 384.71 121.13"><defs><style>.cls-1{fill:#0071bc;}.cls-2{fill:#fff;}</style></defs><title>ideaology white logo</title><g id="Layer_2" data-name="Layer 2"><g id="Layer_1-2" data-name="Layer 1"><path class="cls-1" d="M51.09,40.3c.88.36.45,1.33.44,2,.44,1.53,2.67,1.79,3.7.73a1.42,1.42,0,0,0-.18-2.11c-.75-.65-2-.27-2.62-1.07-.2-.47,0-1,0-1.46-.81-1.26-3.24-1.16-3.8.28C48.6,40,50.15,40,51.09,40.3Z"/><path class="cls-1" d="M58.56,38.7c-.41-1.28-2.23-1.38-3.27-.85a1.07,1.07,0,0,0-.56.83C55,40.51,58.47,40.63,58.56,38.7Z"/><path class="cls-1" d="M58.13,42.36c.49,1.75,3.64,1.95,4,0,.06-1.53-1.91-2.26-3.13-1.68A1.32,1.32,0,0,0,58.13,42.36Z"/><path class="cls-1" d="M67.91,43.49a2,2,0,0,0-2.22-2.55A1.12,1.12,0,0,0,64.46,42C64.28,43.69,66.89,45,67.91,43.49Z"/><path class="cls-1" d="M39,47.63c.7-.85,0-2.14.79-2.93.72-.63,1.8-.59,2.5-1.28a1.56,1.56,0,0,0,.25-2.15c-1.23-1.19-3.78.16-3.35,1.83a2,2,0,0,1-1.72,2,2.11,2.11,0,0,0-1.15,3.27A1.9,1.9,0,0,0,39,47.63Z"/><path class="cls-1" d="M42.15,45.25a1.74,1.74,0,0,0,0,2.49c.53.53,1.44.21,2,.77a1.7,1.7,0,0,1,.41,1.79,2,2,0,0,0,2.36,2.31c1.46-.2,2.44-2.19,1.38-3.35-.63-.9-2-.46-2.62-1.38s0-1.83-.18-2.75c0-1.19,1.35-1.46,2.28-1.57,0,0,1.37-.77,1.33-1.52.14-1.16-1.25-1.72-2.21-1.53a2.1,2.1,0,0,0-1.76,2.76C44.67,44.61,42.9,44.23,42.15,45.25Z"/><path class="cls-1" d="M49.46,44.36a1.78,1.78,0,0,0-.95,2.82c1.07,1.35,3.69.63,3.76-1.15C52.34,44.62,50.63,43.91,49.46,44.36Z"/><path class="cls-1" d="M59,46.54c.4-1.56-1.47-2.71-2.84-2.2a1.69,1.69,0,0,0-1,2.58C56.05,48.3,58.58,48.19,59,46.54Z"/><path class="cls-1" d="M61.79,47.25c-.24,1.7-2.49.95-3.11,2.32a2.15,2.15,0,0,0,1.34,3,2,2,0,0,0,2.6-1.3c.3-.76-.4-1.59.08-2.32a1.89,1.89,0,0,1,1.64-.86,1.49,1.49,0,0,0,1.19-1.73,2.23,2.23,0,0,0-2.94-1.75C61.41,45,61.71,46.32,61.79,47.25Z"/><path class="cls-1" d="M70.76,48.48c1.61-1.33-.49-4.26-2.28-3.23C66.73,46.51,69,49.56,70.76,48.48Z"/><path class="cls-1" d="M53,48.55a2,2,0,0,0-1.28,3.09c.61,1.12,2.14.71,2.93,1.59A3.79,3.79,0,0,1,55,54.93c-.18.88.36,1.89-.24,2.67s-2,.57-2.71,1.3a2.24,2.24,0,1,0,3.53,2.59c.53-1-.28-2.14.33-3.09S58,57.86,58.76,57a2.17,2.17,0,0,0-.27-3.23c-.58-.46-1.38-.44-2-.76a1.87,1.87,0,0,1-.73-2A2.15,2.15,0,0,0,53,48.55Z"/><path class="cls-1" d="M67.42,53A1.66,1.66,0,0,0,69,51.25c0-1.43-1.62-2.8-3-2.07C64.25,50.2,65.53,53.15,67.42,53Z"/><path class="cls-1" d="M73,53.63l.08,0c1.25.9.11,2.55.87,3.68.25.59,1,1.1,1.62.62A2.47,2.47,0,0,0,76,55.28c-.24-1-1.75-1-1.84-2.1.06-1,.16-2.26-.65-3.06a1.35,1.35,0,0,0-2.28.28A2.53,2.53,0,0,0,73,53.63Z"/><path class="cls-1" d="M31.89,58.07c1.29.13,1.77-1.51,1.58-2.53-.23-.8.16-2,1.11-2.08,1,.19,1,1.34.82,2.1-.23,1.06.47,2.42,1.68,2.31s1.91-1.76,1.61-3,.89-2.05,2-2.15h.08a2.24,2.24,0,0,0,.84-3.25,1.91,1.91,0,0,0-2.89.32c-.67.76-.43,1.83-.5,2.76a2.12,2.12,0,0,1-1.11,1.22A1.57,1.57,0,0,1,36,53c-.14-1,.51-2-.14-2.89a1.39,1.39,0,0,0-2.19.1c-.8.81-.53,2-.58,3a1.51,1.51,0,0,1-.85,1.05C30.76,54.81,30.53,57.35,31.89,58.07Z"/><path class="cls-1" d="M42.18,57.5c1.56.87,3.41-1,2.85-2.58a1.92,1.92,0,0,0-2.58-1.32A2.22,2.22,0,0,0,42.18,57.5Z"/><path class="cls-1" d="M68.67,59.19c-.55-.89-1.92-.59-2.4-1.57-.63-.88.09-2-.46-2.93a2,2,0,0,0-2.54-1.11A2.16,2.16,0,0,0,62.62,57c.6.87,1.9.57,2.48,1.47.8,1-.13,2.33.6,3.34a1.76,1.76,0,0,0,2.68.51A2.32,2.32,0,0,0,68.67,59.19Z"/><path class="cls-1" d="M70.48,57.84c2.18-.48,1.46-4.44-.79-4C67.59,54.41,68.29,58.16,70.48,57.84Z"/><path class="cls-1" d="M34.12,58.63c-1.75.61-1.5,4,.51,3.94C36.65,62.13,36.3,58.3,34.12,58.63Z"/><path class="cls-1" d="M58.76,61.45a2.12,2.12,0,0,0,2.82,1.16,2.22,2.22,0,0,0,1-3.13,2.12,2.12,0,0,0-3-.77A2.2,2.2,0,0,0,58.76,61.45Z"/><path class="cls-1" d="M72.65,62.57c2.24,0,2-4.36-.25-3.92C70.71,59.24,70.84,62.26,72.65,62.57Z"/><path class="cls-1" d="M44.47,67.22a2.21,2.21,0,0,0-1-3.69c-.88-.13-1.8-.66-1.83-1.65a3.67,3.67,0,0,0-.19-2.48A1.79,1.79,0,0,0,39,58.7a2.35,2.35,0,0,0-.32,3.56h0c.62.53,1.63.39,2.13,1.11.69.9-.09,2.08.41,3A2,2,0,0,0,44.47,67.22Z"/><path class="cls-1" d="M51.73,67.07a2.19,2.19,0,0,0-1.22-3.47c-.87-.13-1.93-.52-2-1.53a9,9,0,0,0,0-2.55,1.82,1.82,0,0,1,1.79-1.89,2.21,2.21,0,0,0,1.91-2.09A2.18,2.18,0,0,0,50,53.29a2.21,2.21,0,0,0-2.12,2.22c0,.73.25,1.6-.3,2.21s-1.8.5-2.49,1.17A2.27,2.27,0,0,0,44.81,62c.7.85,2,.55,2.68,1.46.88,1-.09,2.33.67,3.33A2.21,2.21,0,0,0,51.73,67.07Z"/><path class="cls-1" d="M31.66,63.23A2.36,2.36,0,0,0,32,66.8C34.31,67.13,33.8,62.39,31.66,63.23Z"/><path class="cls-1" d="M74.54,63.25c-1,.65-.89,2-.8,3,0,.77-.84,1.86-1.6,1.16-1-1.07.36-3-1.12-3.9-1.73-1-3.34,1.57-2.33,3,.32.7,1.12.8,1.78.94.91.29.87,1.4.65,2.14a1.48,1.48,0,0,0,1.21,1.92A2.17,2.17,0,0,0,74.12,69a1.9,1.9,0,0,1,1-2.16c1.12-.47,1.28-2,.94-3C75.85,63.27,75.08,62.78,74.54,63.25Z"/><path class="cls-1" d="M38.63,71.17a1.94,1.94,0,0,0,3,.49,2.22,2.22,0,0,0-1.26-3.38,2.08,2.08,0,0,1-1.49-1c-.4-.89.2-1.89-.28-2.76A1.67,1.67,0,0,0,36,63.64a2.29,2.29,0,0,0,.52,3.58c.6.21,1.31.43,1.57,1.07C38.48,69.21,38,70.33,38.63,71.17Z"/><path class="cls-1" d="M52.77,72.51a2.14,2.14,0,0,0,3-2.29,1.75,1.75,0,0,1,1.39-2.28,2.33,2.33,0,0,0,2.24-2.29,2.17,2.17,0,0,0-3.1-1.92A2.36,2.36,0,0,0,55.1,65c-.35.9.31,1.93-.25,2.78-.7,1-2.27.58-3,1.6A2,2,0,0,0,52.77,72.51Z"/><path class="cls-1" d="M65.46,67.05a2.27,2.27,0,0,0,.11-2.94,1.85,1.85,0,0,0-2.07-.55,2.22,2.22,0,0,0-1.24,1.19c-.5.93.21,2.06-.39,3s-1.91.63-2.65,1.35A2,2,0,0,0,59,72a2.21,2.21,0,0,0,3.48-.59c.54-.9-.18-2,.45-2.89S64.79,67.85,65.46,67.05Z"/><path class="cls-1" d="M33.8,67.84c-1.61,1-.45,4.15,1.44,3.63C37.08,70.65,35.73,67.14,33.8,67.84Z"/><path class="cls-1" d="M66,72c1.63.84,3.53-1.2,2.8-2.8a1.68,1.68,0,0,0-2.5-.67C65.11,69.18,64.65,71.24,66,72Z"/><path class="cls-1" d="M45.35,72.11a2.08,2.08,0,0,0,3.32-1,2.24,2.24,0,0,0-3.22-2.36A2,2,0,0,0,45.35,72.11Z"/><path class="cls-1" d="M36.62,72.56c-1,.5-.95,2-.28,2.73s2.06,1.23,2.74.29C40,74.12,38.24,71.94,36.62,72.56Z"/><path class="cls-1" d="M69.4,72.55c-1.18.41-2.06,2-1.25,3.12,1.11,1.14,3,0,3.17-1.44A1.42,1.42,0,0,0,69.4,72.55Z"/><path class="cls-1" d="M48.89,79.9c.56-.68-.25-1.56.19-2.29.64-.9,2-.43,2.71-1.26a1.7,1.7,0,0,0-.18-2.55,2.2,2.2,0,0,0-3.37.55c-.5.83.5,2-.35,2.66a1.47,1.47,0,0,1-2.39-1.26,2.27,2.27,0,0,0-3-2.55c-1,.46-.89,1.69-.63,2.58S41.14,77,40.48,77a1.34,1.34,0,0,0-1.38,1.24c-.11,1.7,2.42,2.86,3.53,1.49.59-.8-.49-1.81.18-2.55.89-.93,2.51.19,2.32,1.35C44.77,80.48,47.82,81.41,48.89,79.9Z"/><path class="cls-1" d="M65.62,76.63c-.71-.78.29-1.82-.19-2.68a1.69,1.69,0,0,0-2.17-.82c-1.18.34-2.1,1.84-1.34,3,.54.85,1.65.48,2.4,1,.81.77-.43,1.91.32,2.72,1.29,1.42,4.14-.31,3.31-2.12C67.51,76.72,66.31,77.19,65.62,76.63Z"/><path class="cls-1" d="M59.09,75.13c.12-1.47-1.72-2.29-2.91-1.7a1.82,1.82,0,0,0-1,2.65C56.15,77.6,59,77,59.09,75.13Z"/><path class="cls-1" d="M55.76,80.71c-.58-.52-.07-1.27-.19-1.9a2.17,2.17,0,0,0-3-1.07,1.43,1.43,0,0,0-.66,2.18c.66.94,2,.51,2.8,1.23.55.59-.33,1.53.45,2,1,.77,3.31.57,3.42-1C58.24,80.9,56.65,81.29,55.76,80.71Z"/><path class="cls-1" d="M59.23,77.68a1.58,1.58,0,0,0-.91,2.26A2.22,2.22,0,0,0,62,79.11C62.21,77.66,60.31,77.05,59.23,77.68Z"/><path class="cls-1" d="M49.42,81.31a1,1,0,0,0-.22,1.9c1,.59,2.91.61,3.22-.73C52.27,81.15,50.45,80.81,49.42,81.31Z"/><path class="cls-2" d="M16.55,84.24a8.55,8.55,0,0,0-8.11-6,7.79,7.79,0,0,0-1.64.18A8.47,8.47,0,0,0,4,93.92a8.27,8.27,0,0,0,4.5,1.3A8.66,8.66,0,0,0,11,94.84a8,8,0,0,0,2.25-1.09A8.47,8.47,0,0,0,16.55,84.24Zm88.25-3.37a8.55,8.55,0,0,0-6.15-2.6,8.29,8.29,0,0,0-1.68.17,8.5,8.5,0,0,0-5.24,3.49A8.49,8.49,0,0,0,94,93.76a7.94,7.94,0,0,0,4.63,1.43,8.85,8.85,0,0,0,4.13-1,7.91,7.91,0,0,0,3-2.76A8.53,8.53,0,0,0,104.81,80.88Zm-88.64-50a8.52,8.52,0,0,0-7.73-4.92,7.69,7.69,0,0,0-2.33.36A8.45,8.45,0,0,0,8.48,42.85a8.71,8.71,0,0,0,2.77-.45,7.75,7.75,0,0,0,2.37-1.29A8.47,8.47,0,0,0,16.16,30.85Zm45.71,80.09a8.55,8.55,0,0,0-8.32-6.77,7.56,7.56,0,0,0-2.11.3,8.34,8.34,0,0,0-5.1,3.86,8.2,8.2,0,0,0-1,6.19,8.57,8.57,0,0,0,8.28,6.62,7.55,7.55,0,0,0,2-.26,8.36,8.36,0,0,0,5.19-3.78A8.16,8.16,0,0,0,61.87,110.94Zm43.6-81.63a8.52,8.52,0,0,0-6.83-3.39,7.91,7.91,0,0,0-3.13.62,8.49,8.49,0,0,0-5.09,9.55,8.4,8.4,0,0,0,7.76,6.71l.59,0a8.45,8.45,0,0,0,6.7-13.52ZM61.39,5.18A8.6,8.6,0,0,0,53.52,0a7.67,7.67,0,0,0-2.69.47A8.31,8.31,0,0,0,45.88,5a8.14,8.14,0,0,0-.17,6.55,8.52,8.52,0,0,0,8,5.38,7.71,7.71,0,0,0,3.48-.8,8.38,8.38,0,0,0,4.32-4.71A8.21,8.21,0,0,0,61.39,5.18Z"/><path class="cls-2" d="M17.56,30.2a9,9,0,0,1,.5,1.26c2.9-1.68,6.68-3.9,9.21-5.37,5.64-3.26,13-7.46,18.94-10.87a9.24,9.24,0,0,1-1.93-3.1c-.07-.17-.14-.35-.2-.53-7.92,4.54-17.29,9.92-24.87,14.32L16,27.8A9.42,9.42,0,0,1,17.56,30.2Z"/><path class="cls-2" d="M62.93,12A10.31,10.31,0,0,1,61,15.15c.64.42,1.33.84,1.62,1,3.62,2.06,7.29,4.19,10.83,6.25,4.6,2.67,10.71,6.26,15.66,9.07a10.46,10.46,0,0,1,2-3.64h0l0,0,0,0c-9.27-5.34-20.25-11.81-28-16.3C63.06,11.64,63,11.81,62.93,12Z"/><path class="cls-2" d="M100.81,72h0c0-3,0-6,0-9v-.58c0-6.76,0-14.29,0-17.9v-.38a9.54,9.54,0,0,1-2,.23l-.67,0a9.11,9.11,0,0,1-1.5-.19v.36c0,2.26,0,5.91,0,10,0,3.42,0,7.12,0,10.52a12.21,12.21,0,0,0,0,1.32c0,.36,0,.7,0,1v.06c0,.36,0,.73,0,1.12s0,.95,0,1.43v.62h0v1q0,.75,0,1.5v2.39h0c0,.18,0,.84,0,1.52l.07,0a9.76,9.76,0,0,1,2-.21,10.13,10.13,0,0,1,2.15.23c0-1.54,0-3.48,0-4.41Z"/><path class="cls-2" d="M89.15,89.68l-8.7,5c-6,3.46-13.26,7.7-19.48,11.22a9.59,9.59,0,0,1,2.15,3.66c5.18-3,11.42-6.62,16.4-9.49l11.67-6.73A10,10,0,0,1,89.15,89.68Z"/><path class="cls-2" d="M8.44,76.75a9.75,9.75,0,0,1,2.14.25c0-1.89,0-3.71,0-4.33,0-2,.05-4-.09-6.05.11-2.8.1-5.64.08-8.39,0-1.92,0-3.91,0-5.86,0-1.15,0-2.31,0-3.46s0-3.22,0-4.74a10.27,10.27,0,0,1-2.1.22h0a10.24,10.24,0,0,1-2.11-.22c0,2.38,0,5.82,0,8.2,0,.73,0,1.47,0,2.2,0,1.7,0,3.46,0,5.19,0,1.31,0,2.65,0,4v1.77c0,2,0,4.1,0,6.15v0c0,.68,0,1.37,0,2,0,.38,0,1.76,0,3.28l.19,0A9.25,9.25,0,0,1,8.44,76.75Z"/><path class="cls-2" d="M45,107.53a10.37,10.37,0,0,1,1.18-1.59C37.89,101.2,28.42,95.69,20.38,91L18,89.7A10.21,10.21,0,0,1,16,93.4c4,2.31,9.33,5.33,12.51,7.17l15.59,9A10.24,10.24,0,0,1,45,107.53Z"/><path class="cls-2" d="M34.11,46.88A23.45,23.45,0,0,0,32,50.52L20.63,44c-1.46-.85-3-1.72-4.45-2.56l-.36-.2a10,10,0,0,0,2.12-3.59l.3.16c1.75.94,3.49,2,5.17,2.94Z"/><path class="cls-2" d="M34.28,74.49c-5.42,3-13.67,7.52-15.94,8.89L18,83.6a9.58,9.58,0,0,0-2.2-3.67l.41-.23c2.59-1.45,5.2-3,7.73-4.44l8.19-4.46A23.39,23.39,0,0,0,34.28,74.49Z"/><path class="cls-2" d="M55.69,24.2V36.85q-1-.1-2.11-.1t-2.1.1c0-5.3,0-12.14,0-13.17,0-1.68,0-3.35,0-5v-.42a10,10,0,0,0,2.21.25,9.57,9.57,0,0,0,2-.21v.38C55.69,20.51,55.69,22.35,55.69,24.2Z"/><path class="cls-2" d="M55.69,102.51v.36a9.57,9.57,0,0,0-2.14-.24,9.34,9.34,0,0,0-2.06.23v-.39c0-1.41,0-2.84,0-4.22,0-1.23,0-8.38,0-14q1,.1,2.1.1t2.11-.1c0,5.59,0,12.74,0,14C55.7,99.64,55.7,101.09,55.69,102.51Z"/><path class="cls-2" d="M91.37,41.19l-.36.2c-1.51.85-3,1.73-4.5,2.58-.75.43-6.29,3.75-11.27,6.71a23.65,23.65,0,0,0-2.06-3.63c6.23-3.69,13.91-8.27,15.69-9.32l.33-.19A9.91,9.91,0,0,0,91.37,41.19Z"/><path class="cls-2" d="M91.37,79.92a9.71,9.71,0,0,0-.91,1.13,9.25,9.25,0,0,0-1.28,2.53l-.33-.2c-1.8-1.07-9.77-5.66-15.81-9.12a23.62,23.62,0,0,0,2.12-3.65l7.77,4.46,2,1.15c2,1.16,4.05,2.36,6.09,3.5Z"/><rect class="cls-2" x="119.14" y="43.79" width="7.08" height="33.54"/><path class="cls-2" d="M146.48,43.79H132.59V77.34h13.89c10,0,16.86-6.61,16.86-16.77S156.48,43.79,146.48,43.79ZM146.13,71h-6.46V50.17h6.46c6.07,0,10,4,10,10.4S152.2,71,146.13,71Z"/><rect class="cls-1" x="167.8" y="57.3" width="21.23" height="6.04"/><rect class="cls-2" x="167.8" y="43.79" width="23.1" height="6.23"/><rect class="cls-2" x="167.8" y="71.11" width="23.67" height="6.23"/><path class="cls-2" d="M205.84,43.79,192.22,77.34h7.25l2.71-7.19h14.2l2.71,7.19h7.42L212.83,43.79Zm-1.4,20.46,4.85-12.84,4.85,12.84Z"/><path class="cls-2" d="M243.19,43.22c-9.65,0-16.73,7.38-16.73,17.35s7.08,17.35,16.73,17.35,16.73-7.33,16.73-17.35S252.8,43.22,243.19,43.22Zm0,28.08c-5.46,0-9.57-4.36-9.57-10.73s4.11-10.73,9.57-10.73,9.57,4.36,9.57,10.73S248.65,71.3,243.19,71.3Z"/><polygon class="cls-2" points="271.45 43.79 264.38 43.79 264.38 77.34 286.78 77.34 286.78 71.01 271.45 71.01 271.45 43.79"/><path class="cls-2" d="M304.17,43.22c-9.65,0-16.73,7.38-16.73,17.35s7.08,17.35,16.73,17.35,16.73-7.33,16.73-17.35S313.78,43.22,304.17,43.22Zm0,28.08c-5.46,0-9.57-4.36-9.57-10.73s4.11-10.73,9.57-10.73,9.57,4.36,9.57,10.73S309.63,71.3,304.17,71.3Z"/><path class="cls-2" d="M340.6,49.83a10,10,0,0,1,7.91,3.79L353,49c-3-3.79-7.43-5.8-12.8-5.8-9.74,0-16.82,7.24-16.82,17.35s7.08,17.35,16.68,17.35a19.84,19.84,0,0,0,12.36-4.26V59.56H338.07V66H346v3.84a10.43,10.43,0,0,1-5.5,1.44c-5.85,0-9.92-4.46-9.92-10.73S334.66,49.83,340.6,49.83Z"/><polygon class="cls-2" points="377.77 43.79 369.6 58.7 361.43 43.79 353.92 43.79 365.76 65.36 365.76 77.34 372.83 77.34 372.83 65.45 384.71 43.79 377.77 43.79"/></g></g></svg>